<?xml version="1.0" standalone="no"?>
<!DOCTYPE svg PUBLIC "-//W3C//DTD SVG 20010904//EN"
 "http://www.w3.org/TR/2001/REC-SVG-20010904/DTD/svg10.dtd">
<svg version="1.0" xmlns="http://www.w3.org/2000/svg"
 width="512.000000pt" height="512.000000pt" viewBox="0 0 512.000000 512.000000"
 preserveAspectRatio="xMidYMid meet">
<metadata>
Created by potrace 1.11, written by Peter Selinger 2001-2013
</metadata>
<g transform="translate(0.000000,512.000000) scale(0.100000,-0.100000)"
fill="#000000" stroke="none">
<path d="M635 5104 c-16 -8 -41 -25 -54 -37 -52 -48 -51 -25 -51 -902 l0 -815
2030 0 2030 0 0 818 c0 916 5 854 -73 916 l-39 31 -1906 2 c-1714 3 -1910 1
-1937 -13z m3572 -366 l23 -21 0 -389 0 -389 -25 -24 -24 -25 -1621 0 -1621 0
-24 25 -25 24 0 387 c0 384 0 388 22 411 l21 23 1626 0 1625 0 23 -22z"/>
<path d="M3213 4572 c-35 -26 -43 -73 -43 -243 0 -184 4 -210 38 -244 24 -24
30 -25 147 -25 119 0 123 1 149 26 l26 27 0 212 0 212 -26 27 c-26 25 -30 26
-148 26 -99 0 -125 -4 -143 -18z"/>
<path d="M3743 4575 c-34 -24 -43 -76 -43 -250 0 -258 5 -265 188 -265 116 0
120 1 146 26 l26 27 0 212 0 212 -26 27 c-26 25 -30 26 -148 26 -93 0 -127 -4
-143 -15z"/>
<path d="M933 2996 c-17 -8 -36 -23 -42 -35 -7 -12 -11 -98 -11 -229 l0 -209
26 -27 27 -26 213 0 c211 0 213 0 241 24 l28 24 0 216 0 216 -28 27 -27 28
-198 2 c-153 2 -204 0 -229 -11z"/>
<path d="M1654 3003 c-12 -2 -32 -15 -45 -29 -23 -25 -24 -32 -27 -206 -4
-207 0 -241 33 -274 24 -24 26 -24 238 -24 l214 0 27 26 26 27 0 209 c0 131
-4 217 -11 230 -21 40 -66 48 -256 47 -98 -1 -188 -4 -199 -6z"/>
<path d="M2353 2999 c-57 -16 -63 -42 -63 -268 l0 -199 26 -31 26 -31 218 0
218 0 26 31 26 31 0 199 c0 230 -5 251 -68 268 -45 13 -365 13 -409 0z"/>
<path d="M3053 2996 c-17 -8 -36 -23 -42 -35 -7 -12 -11 -98 -11 -229 l0 -209
26 -27 27 -26 214 0 c212 0 214 0 238 24 33 33 37 67 33 274 l-3 182 -28 27
-27 28 -198 2 c-153 2 -204 0 -229 -11z"/>
<path d="M3774 3003 c-12 -2 -32 -15 -45 -29 -24 -25 -24 -28 -24 -241 l0
-215 28 -24 c28 -24 30 -24 241 -24 l213 0 27 26 26 27 0 209 c0 131 -4 217
-11 230 -21 40 -66 48 -256 47 -98 -1 -188 -4 -199 -6z"/>
<path d="M909 2271 l-29 -29 0 -211 c0 -207 0 -210 24 -238 l24 -28 203 -3
c228 -4 253 1 275 54 18 42 20 375 3 423 -19 55 -45 61 -269 61 l-202 0 -29
-29z"/>
<path d="M1628 2284 c-42 -22 -50 -71 -46 -278 3 -196 8 -215 59 -236 17 -7
98 -10 227 -8 196 3 201 3 226 27 l26 24 0 216 c-1 226 -2 236 -47 259 -34 19
-410 15 -445 -4z"/>
<path d="M2340 2287 c-47 -24 -51 -46 -48 -269 4 -276 -21 -253 268 -253 215
0 220 0 242 23 23 22 23 27 23 242 0 289 23 264 -253 268 -153 2 -213 -1 -232
-11z"/>
<path d="M3045 2288 c-43 -25 -44 -35 -45 -259 l0 -216 26 -24 c25 -24 30 -24
226 -27 212 -3 242 1 268 41 19 29 27 363 10 425 -18 67 -36 72 -267 72 -130
-1 -205 -5 -218 -12z"/>
<path d="M3749 2285 c-15 -8 -32 -29 -38 -46 -17 -48 -15 -381 3 -423 22 -53
47 -58 275 -54 l203 3 24 28 c24 28 24 31 24 238 l0 211 -29 29 -29 29 -204 0
c-157 -1 -209 -4 -229 -15z"/>
<path d="M906 1564 l-26 -27 0 -214 c0 -212 0 -214 24 -238 32 -32 80 -37 284
-33 l172 3 27 28 28 27 0 214 c0 213 0 215 -24 240 l-24 26 -217 0 -217 0 -27
-26z"/>
<path d="M1615 1566 c-33 -33 -37 -67 -33 -274 l3 -182 28 -27 27 -28 182 -3
c207 -4 241 0 274 33 24 24 24 26 24 240 0 288 23 265 -265 265 -214 0 -216 0
-240 -24z"/>
<path d="M2316 1559 l-26 -31 0 -198 c0 -212 5 -238 48 -261 36 -20 408 -20
444 0 43 23 48 49 48 261 l0 198 -26 31 -26 31 -218 0 -218 0 -26 -31z"/>
<path d="M3025 1565 c-25 -24 -25 -24 -25 -240 0 -214 0 -216 24 -240 33 -33
67 -37 274 -33 l182 3 27 28 28 27 3 182 c4 207 0 241 -33 274 -24 24 -26 24
-240 24 -216 0 -216 0 -240 -25z"/>
<path d="M3729 1564 l-24 -26 -3 -536 c-2 -295 0 -552 3 -571 4 -18 17 -44 30
-57 24 -24 26 -24 238 -24 l214 0 27 26 26 27 0 567 0 567 -26 27 -27 26 -217
0 -217 0 -24 -26z"/>
<path d="M928 874 c-15 -8 -32 -23 -38 -34 -6 -11 -10 -103 -10 -227 1 -218 2
-228 47 -251 29 -16 416 -16 445 -1 39 21 48 67 48 257 0 101 -5 192 -11 210
-19 54 -52 62 -266 62 -146 -1 -194 -4 -215 -16z"/>
<path d="M1645 881 c-11 -5 -29 -19 -40 -31 -18 -20 -20 -39 -23 -203 -4 -206
0 -240 33 -273 24 -24 26 -24 238 -24 l214 0 27 26 26 27 0 213 c0 211 0 213
-24 241 l-24 28 -204 2 c-111 1 -212 -1 -223 -6z"/>
<path d="M2344 876 c-50 -22 -56 -50 -52 -275 l3 -203 28 -24 c28 -24 31 -24
237 -24 206 0 209 0 237 24 l28 24 3 203 c4 228 -1 253 -54 275 -46 19 -386
19 -430 0z"/>
<path d="M3054 880 c-50 -20 -54 -39 -54 -266 l0 -211 26 -27 27 -26 214 0
c212 0 214 0 238 24 33 33 37 67 33 274 l-3 182 -28 27 -27 28 -203 2 c-111 1
-212 -2 -223 -7z"/>
</g>
</svg>
